<svg width="220" height="220" viewBox="0 0 220 220" fill="none" xmlns="http://www.w3.org/2000/svg">
  <rect width="220" height="220" rx="44" fill="#161319"/>
  <path d="M110 16L128.8 77.5L190 58.4L147.4 107.2L199 146.7L134.5 139.2L125.5 204L96.2 145.9L38 175.1L76.8 122.7L21 89.4L85.8 84.8L110 16Z" fill="#D9B56F"/>
  <path d="M110 48L122.8 90.1L164.7 77L135.5 110.4L170.8 137.4L126.7 132.3L120.5 176.6L100.5 136.8L60.7 156.8L87.2 120.9L49.1 98.1L93.4 95L110 48Z" fill="#F5E6B7"/>
  <circle cx="110" cy="110" r="28" fill="#27202B"/>
  <circle cx="110" cy="110" r="15" fill="#9B8FD9"/>
</svg>
